<?xml version="1.0" standalone="no"?>
<!DOCTYPE svg PUBLIC "-//W3C//DTD SVG 20010904//EN"
 "http://www.w3.org/TR/2001/REC-SVG-20010904/DTD/svg10.dtd">
<svg version="1.0" xmlns="http://www.w3.org/2000/svg"
 width="512.000000pt" height="512.000000pt" viewBox="0 0 512.000000 512.000000"
 preserveAspectRatio="xMidYMid meet">
<metadata>
Created by potrace 1.14, written by Peter Selinger 2001-2017
</metadata>
<g transform="translate(0.000000,512.000000) scale(0.100000,-0.100000)"
fill="#000000" stroke="none">
<path d="M0 2560 l0 -2560 2560 0 2560 0 0 2560 0 2560 -2560 0 -2560 0 0
-2560z m2641 1816 l63 -219 228 6 c125 4 228 3 228 -1 0 -6 -296 -229 -363
-273 -5 -4 23 -107 63 -234 39 -125 69 -229 67 -232 -3 -2 -87 61 -187 141
-118 94 -187 143 -194 137 -246 -193 -360 -280 -362 -278 -2 2 30 106 72 231
42 125 75 228 73 230 -2 2 -87 65 -189 142 l-185 139 232 3 232 2 36 118 c107
347 107 347 115 327 4 -11 36 -119 71 -239z m1460 -1453 l63 -223 232 -2 232
-3 -188 -138 -189 -138 13 -42 c7 -23 39 -124 71 -225 32 -100 55 -185 52
-188 -3 -3 -85 58 -182 135 -97 78 -181 141 -186 141 -5 0 -89 -63 -188 -140
-98 -77 -181 -140 -184 -140 -3 0 28 100 69 222 41 122 74 227 74 233 -1 5
-80 69 -176 140 -96 72 -181 136 -187 144 -10 12 22 13 220 9 l233 -5 34 111
c19 61 51 164 71 230 20 65 40 114 45 110 4 -5 36 -109 71 -231z m-2930 -1450
l66 -228 234 -5 234 -5 -75 -55 c-41 -31 -124 -91 -184 -135 -59 -44 -110 -84
-112 -90 -3 -6 27 -112 66 -235 38 -123 68 -225 67 -227 -2 -1 -85 62 -185
142 -100 80 -185 145 -188 145 -3 0 -87 -63 -186 -141 -98 -78 -181 -139 -184
-137 -2 3 30 105 71 228 41 123 72 227 67 231 -4 3 -89 68 -189 143 -101 75
-183 139 -183 142 0 2 105 2 233 -2 l232 -7 70 232 c39 127 72 231 75 231 3 0
35 -102 71 -227z m1459 11 c34 -115 63 -217 66 -226 5 -17 25 -18 235 -18 126
0 229 -3 229 -7 -1 -5 -82 -66 -181 -138 -99 -71 -183 -133 -185 -137 -3 -4
27 -107 66 -230 39 -122 69 -225 68 -229 -2 -4 -82 56 -178 132 -96 77 -180
142 -187 145 -9 4 -104 -66 -361 -269 -7 -5 -15 -8 -17 -5 -3 2 29 105 70 228
41 124 75 225 75 226 0 1 -83 64 -185 140 -102 76 -185 142 -185 147 0 4 103
4 229 1 219 -7 229 -6 234 12 11 35 128 419 133 433 2 8 7 12 9 9 3 -2 32 -99
65 -214z m1470 -21 l64 -223 234 -2 234 -3 -173 -127 c-96 -70 -182 -133 -191
-140 -16 -12 -12 -30 56 -243 40 -126 72 -231 70 -233 -1 -2 -85 62 -186 142
-100 80 -186 146 -189 146 -3 0 -86 -63 -184 -140 -98 -77 -181 -140 -186
-140 -4 0 26 100 67 223 41 122 72 227 70 233 -2 5 -85 71 -185 145 -99 74
-180 137 -181 142 0 4 104 6 231 5 l231 -3 48 155 c26 85 58 188 70 229 12 40
25 70 29 65 4 -5 36 -109 71 -231z"/>
</g>
</svg>
